{"title":"Percy.Jackson.And.the.Olympians.The.Lightning.Thief.2010.Eng.LU","uid":5363531,"size":735833533,"categoryP":"video","categoryS":"movies","magnet":"?xt=urn:btih:595059563ec5418b6b4f2396724eb1cba720c141&amp;dn=Percy.Jackson.And.the.Olympians.The.Lightning.Thief.2010.Eng.LU&amp;tr=udp%3A%2F%2Ftracker.openbittorrent.com%3A80&amp;tr=udp%3A%2F%2Fopen.demonii.com%3A1337&amp;tr=udp%3A%2F%2Ftracker.coppersurfer.tk%3A6969&amp;tr=udp%3A%2F%2Fexodus.desync.com%3A6969","seeders":2,"leechers":0,"uploader":".BONE.","files":-1,"time":1266185854,"description":"General\nComplete name                    : Percy.Jackson.And.the.Olympians.The.Lightning.Thief.2010.Eng.LU.avi\nFormat                           : AVI\nFormat/Info                      : Audio Video Interleave\nFile size                        : 702 MiB\nDuration                         : 1h 51mn\nOverall bit rate                 : 883 Kbps\nMovie name                       : Percy Jackson &amp; the Olympians: The Lightning Thief (2010)\nDirector                         : ELEKTRI4KA\nWriting application              : VirtualDubMod 1.5.10.2 (build 2540/release)\nWriting library                  : VirtualDub build 32706/release\nCopyright                        : http://uniongang.ru/\n\nVideo\nID                               : 0\nFormat                           : MPEG-4 Visual\nFormat profile                   : Advanced Simple@L5\nFormat settings, BVOP            : Yes\nFormat settings, QPel            : No\nFormat settings, GMC             : No warppoints\nFormat settings, Matrix          : Default (H.263)\nCodec ID                         : XVID\nCodec ID/Hint                    : XviD\nDuration                         : 1h 51mn\nBit rate                         : 745 Kbps\nWidth                            : 640 pixels\nHeight                           : 272 pixels\nDisplay aspect ratio             : 2.35:1\nFrame rate                       : 25.000 fps\nResolution                       : 8 bits\nColorimetry                      : 4:2:0\nScan type                        : Progressive\nBits/(Pixel*Frame)               : 0.171\nStream size                      : 592 MiB (84%)\nWriting library                  : XviD 1.2.1 (UTC 2008-12-04)\n\nAudio\nID                               : 1\nFormat                           : MPEG Audio\nFormat version                   : Version 1\nFormat profile                   : Layer 3\nCodec ID                         : 55\nCodec ID/Hint                    : MP3\nDuration                         : 1h 51mn\nBit rate mode                    : Constant\nBit rate                         : 128 Kbps\nChannel(s)                       : 2 channels\nSampling rate                    : 44.1 KHz\nStream size                      : 102 MiB (15%)\nAlignment                        : Split accross interleaves\nInterleave, duration             : 40 ms (1.00 video frame)\nInterleave, preload duration     : 500 ms\n\n\n\nWell couldnt wait on english audio for this,wanted to see it lol\nSo i added mine its very clear as usual...be good enough untill\na line audio comes out..\nVideo is ELEKTRI4KA thanks guys.\n\nEnjoy","torrent":{"xt":"urn:btih:595059563ec5418b6b4f2396724eb1cba720c141","amp;dn":"Percy.Jackson.And.the.Olympians.The.Lightning.Thief.2010.Eng.LU","amp;tr":["udp%3A%2F%2Ftracker.openbittorrent.com%3A80","udp%3A%2F%2Fopen.demonii.com%3A1337","udp%3A%2F%2Ftracker.coppersurfer.tk%3A6969","udp%3A%2F%2Fexodus.desync.com%3A6969"],"infoHash":"595059563ec5418b6b4f2396724eb1cba720c141","infoHashBuffer":{"type":"Buffer","data":[89,80,89,86,62,197,65,139,107,79,35,150,114,78,177,203,167,32,193,65]},"announce":[],"urlList":[]}}